<?xml version="1.0" encoding="UTF-8"?>
<svg id="Layer_1" xmlns="http://www.w3.org/2000/svg" version="1.1" viewBox="0 0 64 64">
  <!-- Generator: Adobe Illustrator 29.5.1, SVG Export Plug-In . SVG Version: 2.1.0 Build 141)  -->
  <defs>
    <style>
      .st0 {
        fill: #929497;
      }
    </style>
  </defs>
  <path class="st0" d="M45.67,34.64c-1.46-2.32-3.4-4.19-5.8-5.61-2.41-1.42-4.99-2.13-7.74-2.13-3.01,0-5.72.73-8.12,2.19-2.41,1.46-4.34,3.44-5.8,5.93v-16.38c1.46,2.49,3.4,4.47,5.8,5.93,2.41,1.46,5.11,2.19,8.12,2.19,2.75,0,5.33-.71,7.74-2.13,2.41-1.42,4.34-3.29,5.8-5.61v15.61ZM29.61,39.29c-.56-.52-.84-1.12-.84-1.81s.28-1.29.84-1.81c.56-.52,1.18-.77,1.87-.77s1.29.26,1.81.77c.52.52.77,1.12.77,1.81s-.26,1.29-.77,1.81c-.52.52-1.12.77-1.81.77s-1.31-.26-1.87-.77M45.67,42.25c-3.27.86-6.04,2.51-8.32,4.97-2.28,2.45-3.76,5.4-4.45,8.84v-13.41c1.2-.34,2.15-.99,2.84-1.94.69-.94,1.03-2.02,1.03-3.22,0-1.46-.52-2.73-1.55-3.8-1.03-1.07-2.28-1.61-3.74-1.61s-2.73.54-3.8,1.61c-1.08,1.08-1.61,2.34-1.61,3.8,0,1.21.37,2.3,1.1,3.29.73.99,1.7,1.61,2.9,1.87v12.77c-.69-3.1-2.09-5.78-4.19-8.06-2.11-2.28-4.67-3.89-7.67-4.84v-.52h.13c.69-3.61,2.32-6.58,4.9-8.9,2.58-2.32,5.55-3.48,8.9-3.48s6.15,1.1,8.64,3.29c2.49,2.19,4.13,5.01,4.9,8.45v.9ZM45.54,12.98c-.95,3.27-2.64,5.93-5.09,8-2.45,2.06-5.22,3.1-8.32,3.1s-6-1.03-8.45-3.1c-2.45-2.06-4.15-4.73-5.09-8h26.96ZM48.51,10.27H15.49v34.44l1.03.26c3.27.69,5.95,2.39,8.06,5.1,2.11,2.71,3.16,5.87,3.16,9.48v1.81h7.61v-1.81c0-3.78,1.14-7.03,3.42-9.74,2.28-2.71,5.14-4.36,8.58-4.97l1.16-.26V10.27ZM17.43,5.62c.09-.86.13-1.5.13-1.94s.17-.64.52-.64c.26,0,.39.22.39.64v3.61c0,.43-.13.64-.39.64h-.9c-.09-.08-.13-.17-.13-.26.17-.52.3-1.2.39-2.06M18.59,8.33c.26,0,.47.09.65.26h.77v-.64c-.34,0-.52-.13-.52-.39v-4c0-.34.17-.52.52-.52v-.39h-3.61v.39c.17,0,.3.06.39.19.08.13.13.58.13,1.35,0,.86-.11,1.63-.32,2.32-.22.69-.41,1.03-.58,1.03h-.13v.64h.9c.34-.17.56-.26.64-.26h1.16ZM44.9,7.95c-.34,0-.52-.13-.52-.39v-1.29l.52-.64.77,1.68c.09.09.13.17.13.26v.13c0,.17-.13.26-.39.26v.39h2.06v-.39c-.09,0-.3-.21-.65-.64l-1.29-2.45c0-.17.04-.3.13-.39.43-.6.73-.99.9-1.16.17-.17.39-.26.64-.26v-.39h-1.93v.39c.34,0,.52.13.52.39s-.22.6-.65,1.03l-.77,1.16v-2.06c0-.34.13-.52.39-.52h.13v-.39h-1.94v.39c.34,0,.52.17.52.52v4c0,.26-.13.39-.39.39h-.13v.39h1.94v-.39ZM39.74,6.91l1.29-1.94c0-.08.04-.13.13-.13v2.71c0,.26-.17.39-.52.39v.39h1.93v-.39c-.34,0-.52-.13-.52-.39v-4c0-.34.17-.52.52-.52v-.39h-1.42v1.29l-1.42,2.32v.13c-.09,0-.13-.04-.13-.13v-2.71c0-.34.17-.52.52-.52v-.39h-1.94v.39c.34,0,.52.17.52.52v4c0,.26-.17.39-.52.39v.39h1.42l.13-1.42ZM35.35,7.95c-.34,0-.52-.13-.52-.39v-1.93h1.55v1.93c0,.26-.17.39-.52.39v.39h1.93v-.39h-.13c-.17,0-.26-.13-.26-.39v-4c0-.34.13-.52.39-.52v-.39h-1.93v.39c.34,0,.52.17.52.52v1.68h-1.55v-1.68c0-.34.17-.52.52-.52v-.39h-1.94v.39c.34,0,.52.17.52.52v4c0,.26-.13.39-.39.39h-.13v.39h1.94v-.39ZM30.71,5.62v-.13h.13c.69,0,1.03.43,1.03,1.29,0,.77-.26,1.16-.77,1.16-.26,0-.39-.17-.39-.52v-1.81ZM30.71,3.43c0-.26.13-.39.39-.39.43,0,.64.34.64,1.03s-.3,1.03-.9,1.03h-.13v-1.68ZM32,5.37c-.26,0-.39-.04-.39-.13s.17-.13.52-.13c.43-.26.65-.64.65-1.16,0-.86-.43-1.29-1.29-1.29h-2.32v.39c.34,0,.52.17.52.52v4c0,.26-.13.39-.39.39h-.13v.39h2.06c.69,0,1.16-.15,1.42-.45.26-.3.39-.66.39-1.1,0-.77-.34-1.25-1.03-1.42M28.78,6.4h-.26c-.17.69-.34,1.12-.52,1.29-.17.17-.47.26-.9.26-.34,0-.52-.13-.52-.39v-1.81c0-.08.04-.13.13-.13.43,0,.69.34.77,1.03h.26v-2.45h-.26c0,.69-.26,1.03-.77,1.03-.09,0-.13-.04-.13-.13v-1.68c0-.26.21-.39.64-.39.77,0,1.16.47,1.16,1.42h.26v-1.81h-3.61v.39c.34,0,.52.17.52.52v4c0,.26-.13.39-.39.39h-.13v.39h3.74v-1.94ZM22.46,7.95c-.34,0-.52-.13-.52-.39v-1.93h1.29v1.93c0,.26-.17.39-.52.39v.39h2.06v-.39h-.13c-.26,0-.39-.13-.39-.39v-4c0-.34.17-.52.52-.52v-.39h-2.06v.39c.34,0,.52.17.52.52v1.68h-1.29v-1.68c0-.34.17-.52.52-.52v-.39h-2.19v.39c.34,0,.52.17.52.52v4c0,.26-.13.39-.39.39h-.13v.39h2.19v-.39Z"/>
</svg>